<svg xmlns="http://www.w3.org/2000/svg"  viewBox="0 0 50 50" width="50px" height="50px"><path d="M 6 4 C 4.91 4 4 4.91 4 6 L 4 44 C 4 45.09 4.91 46 6 46 L 44 46 C 45.09 46 46 45.09 46 44 L 46 6 C 46 4.91 45.09 4 44 4 L 6 4 z M 6 6 L 44 6 L 44 44 L 6 44 L 6 6 z M 22.142578 17.486328 L 19.142578 22.486328 C 18.743578 23.152328 19.223 24 20 24 L 22 24 L 20.175781 26.808594 C 19.720781 27.472594 20.195 28.375 21 28.375 L 23.625 28.375 L 24.625 26.375 L 22.898438 26.375 L 25 22 L 21.765625 22 L 23.857422 18.515625 L 22.142578 17.486328 z M 25 22 L 27 22 L 27 29 L 25 29 L 24 31 L 27 31 L 29 31 L 31 31 L 31 29 L 29 29 L 29 22 L 31 22 L 31 20 L 25 20 L 25 22 z M 13 19 L 13 30 L 15 30 L 15 19 L 13 19 z M 33 19 L 33 20 L 32 20 L 32 22 L 33 22 L 33 24 L 31 24 L 31 26 L 33 26 L 33 31 L 35 31 L 35 26 L 38 26 L 38 29 L 36.050781 29 C 36.280781 30.14 36.29 31 37.5 31 C 38.88 31 40 29.88 40 28.5 L 40 26 C 40 24.9 39.1 24 38 24 L 38 22 C 38 20.895 37.105 20 36 20 L 35 20 L 35 19 L 33 19 z M 40 20 C 39.448 20 39 20.448 39 21 L 39 22 L 40 22 C 40.552 22 41 21.552 41 21 C 41 20.448 40.552 20 40 20 z M 10 22 L 10 24 C 9.998 26.12 9.5014219 28.066719 9.1074219 28.261719 L 9.390625 30.240234 C 11.811625 29.894234 12 25.376 12 24 L 12 22 L 10 22 z M 16 22 L 16 23.931641 C 16 24.983641 16.092969 28.507031 17.292969 29.707031 L 18.707031 28.292969 C 18.338031 27.923969 18.001 25.845641 18 23.931641 L 18 22 L 16 22 z M 35 22 L 36 22 L 36 24 L 35 24 L 35 22 z M 20 29 L 19 31 L 22 31 L 23 29 L 20 29 z"/></svg>